<?xml version="1.0" encoding="UTF-8"?>
<!DOCTYPE svg PUBLIC "-//W3C//DTD SVG 1.1//EN" "http://www.w3.org/Graphics/SVG/1.1/DTD/svg11.dtd">
<!-- Creator: CorelDRAW 2019 (64-Bit) -->
<svg xmlns="http://www.w3.org/2000/svg" xml:space="preserve" width="506px" height="512px" version="1.1" style="shape-rendering:geometricPrecision; text-rendering:geometricPrecision; image-rendering:optimizeQuality; fill-rule:evenodd; clip-rule:evenodd"
viewBox="0 0 483.94 489.61"
 xmlns:xlink="http://www.w3.org/1999/xlink"
 xmlns:xodm="http://www.corel.com/coreldraw/odm/2003">
 <defs>
  <style type="text/css">
   <![CDATA[
    .fil2 {fill:blue}
    .fil1 {fill:#33CC33}
    .fil0 {fill:#CC3300}
    .fil4 {fill:#CC33FF}
    .fil3 {fill:#FF6600}
    .fil5 {fill:white}
   ]]>
  </style>
 </defs>
 <g id="Plan_x0020_1">
  <metadata id="CorelCorpID_0Corel-Layer"/>
  <g id="_2702574596880">
   <path class="fil0" d="M207.55 146.97c-65.71,-62.93 -129.79,-88.77 -169.33,-91.75 62.08,36.7 143.58,86.83 184.16,159.52 12.8,-68.1 55.35,-133.52 105.36,-183.43 -40.37,19.65 -91.64,61.82 -120.19,115.66z"/>
   <path class="fil1" d="M303.59 189.58c39.1,-82.16 43.5,-151.11 33.91,-189.58 -15.34,70.46 -37.33,163.59 -93.59,224.95 68.67,-9.25 144.15,10.6 207.24,42.4 -31.34,-32.15 -87.48,-67.58 -147.56,-77.77z"/>
   <path class="fil2" d="M293.3 294.14c90.29,11.32 157.13,-6.17 190.64,-27.36 -71.71,7.57 -167.03,15.95 -242.96,-18.19 30.35,62.29 35.21,140.18 24.84,210.06 20.68,-39.85 36.68,-104.27 27.48,-164.51z"/>
   <path class="fil3" d="M190.81 317.22c17.61,89.26 55.21,147.24 85.85,172.39 -29.71,-65.71 -67.61,-153.57 -59.04,-236.38 -49.61,48.38 -122.03,77.47 -191.64,89.57 44.33,7.12 110.53,2.07 164.83,-25.58z"/>
   <path class="fil4" d="M136.7 227.16c-79.22,44.76 -122.45,98.66 -136.7,135.66 53.05,-48.85 124.56,-112.43 205.87,-130.31 -61.52,-31.9 -111.88,-91.52 -145.23,-153.8 7.16,44.32 32.75,105.58 76.06,148.45z"/>
   <g>
    <path class="fil5" d="M192.57 39.7c11.65,-1.88 22.93,7.95 25.18,21.94 2.26,14 -5.37,26.86 -17.02,28.74 -11.66,1.88 -22.93,-7.94 -25.19,-21.94 -2.25,-13.99 5.37,-26.86 17.03,-28.74z"/>
    <path class="fil5" d="M400.72 141.65c5.44,10.48 -0.34,24.27 -12.92,30.81 -12.58,6.53 -27.19,3.34 -32.63,-7.14 -5.44,-10.47 0.34,-24.26 12.92,-30.8 12.58,-6.54 27.18,-3.34 32.63,7.13z"/>
    <path class="fil5" d="M369.31 371.3c-8.23,8.46 -23.14,7.3 -33.3,-2.59 -10.16,-9.89 -11.71,-24.76 -3.48,-33.22 8.24,-8.46 23.15,-7.3 33.31,2.59 10.15,9.88 11.71,24.76 3.47,33.22z"/>
    <path class="fil5" d="M141.43 413.61c-10.62,-5.16 -14.2,-19.68 -8.01,-32.42 6.2,-12.75 19.83,-18.9 30.45,-13.74 10.62,5.16 14.2,19.68 8.01,32.43 -6.2,12.75 -19.83,18.9 -30.45,13.73z"/>
    <path class="fil5" d="M29.67 210.56c1.56,-11.7 14.22,-19.67 28.27,-17.79 14.05,1.88 24.17,12.89 22.61,24.6 -1.57,11.7 -14.23,19.66 -28.28,17.78 -14.05,-1.88 -24.17,-12.89 -22.6,-24.59z"/>
   </g>
  </g>
 </g>
</svg>
